<svg xmlns="http://www.w3.org/2000/svg" width="36" height="36" viewBox="0 0 36 36">
  <g id="Group_261" data-name="Group 261" transform="translate(-3 -3)">
    <path id="Path_535" data-name="Path 535" d="M56.273,33.075h0a.947.947,0,0,0,.826.266c.059,0,13.338-3.748,14.43-4.043.059-.03.118-.03.148-.059a.952.952,0,0,0,.472-.826.881.881,0,0,0-.413-.738c-.059-.059-6.875-3.187-6.875-3.187h0s-3.128-6.816-3.157-6.875a1,1,0,0,0-.738-.413.921.921,0,0,0-.826.472c-.03.059-.059.089-.059.148-.3,1.092-4.043,14.37-4.043,14.43A.862.862,0,0,0,56.273,33.075Z" transform="translate(-37.368 -10.01)" fill="#fff"/>
    <path id="Path_536" data-name="Path 536" d="M30.443,12.856l.089-.089.059-.059.059-.059.089-.089L30.8,12.5l.059-.059.089-.089L31,12.3l.059-.059.089-.089.059-.059.059-.059.089-.089a.918.918,0,0,0-1.3-1.3l-.089.089-.059.059-.059.059-.089.089L29.7,11l-.059.059-.089.089L29.5,11.2l-.059.059-.089.089-.059.059-.059.059-.089.089a.918.918,0,0,0,1.3,1.3Zm3.3-5.9-.089.089L33.6,7.1l-.059.059-.089.089-.059.059-.059.059-.089.089-.059.059-.059.059-.089.089-.059.059-.059.059-.089.089a.918.918,0,0,0,1.3,1.3l.089-.089.059-.059.059-.059.089-.089.059-.059.059-.059.089-.089.059-.059.059-.059.089-.089L34.9,8.4l.059-.059.089-.089a.918.918,0,0,0-1.3-1.3Zm4.987-3.689a.926.926,0,0,0-1.3,0l-.089.089-.059.059-.059.059-.089.089-.059.059-.059.059-.089.089-.059.059-.059.059-.089.089-.059.059-.059.059-.089.089a.918.918,0,1,0,1.3,1.3l.089-.089.059-.059.059-.059.089-.089.059-.059.059-.059.089-.089.059-.059.059-.059.089-.089.059-.059.059-.059.089-.089A.926.926,0,0,0,38.734,3.266ZM34.662,21.118l-.354.089c-1.328.384-2.538.708-3.63,1.033,0,.236.03.472.03.738A11.685,11.685,0,1,1,19.023,11.292a5.686,5.686,0,0,1,.708.03c.325-1.21.708-2.538,1.121-4.013a2.033,2.033,0,0,1,.089-.236,13.667,13.667,0,0,0-1.918-.118A16.023,16.023,0,1,0,35.046,22.977a14.377,14.377,0,0,0-.118-1.948A.361.361,0,0,1,34.662,21.118Z" transform="translate(0 0)" fill="#fff"/>
    <path id="Path_537" data-name="Path 537" d="M37.425,50.028c.266-.915.679-2.449,1.387-4.928a7.576,7.576,0,1,0,8.026,8c-2.449.679-3.984,1.121-4.9,1.387a3.21,3.21,0,0,1-5.872-1.8A3.141,3.141,0,0,1,37.425,50.028Z" transform="translate(-20.231 -29.677)" fill="#fff"/>
  </g>
</svg>
