<svg id="Group_146" data-name="Group 146" xmlns="http://www.w3.org/2000/svg" width="140.732" height="131.708" viewBox="0 0 140.732 131.708">
  <rect id="Rectangle_202" data-name="Rectangle 202" width="103.272" height="57.868" transform="translate(21.558 29.61)" fill="#fff"/>
  <path id="Path_18" data-name="Path 18" d="M72.367,2.641C33.5,2.641,2,27.867,2,58.983c0,27.738,25.029,50.8,58,55.477.774.106,1.555.2,2.336.3,11.223,2.336,1.492,16.381,5.172,19.252,4.222,3.307,36.253-18.112,55.716-36.1a60.781,60.781,0,0,0,7.663-7.6l.042-.042a14.573,14.573,0,0,0,1.3-1.633,48.159,48.159,0,0,0,10.506-29.652c0-31.116-31.5-56.342-70.367-56.342ZM49.4,73.289a3.673,3.673,0,0,1-3.666,3.666H31.554a3.68,3.68,0,0,1-3.673-3.666V46.071A3.687,3.687,0,0,1,31.554,42.4h.3a3.687,3.687,0,0,1,3.673,3.673V69.292h10.2A3.673,3.673,0,0,1,49.4,72.958Zm10.611,0a3.68,3.68,0,0,1-3.673,3.666h-.3a3.68,3.68,0,0,1-3.673-3.666V46.071A3.687,3.687,0,0,1,56.034,42.4h.3a3.687,3.687,0,0,1,3.673,3.673Zm33.241,0a3.687,3.687,0,0,1-1.063,2.575,2.491,2.491,0,0,1-.894.661,3.575,3.575,0,0,1-1.717.429h-.324a3.659,3.659,0,0,1-1.407-.274,3.033,3.033,0,0,1-1.407-1.056,3.517,3.517,0,0,1-.274-.366L72.8,57.013V73.289a3.68,3.68,0,0,1-3.673,3.666h-.274a3.68,3.68,0,0,1-3.673-3.666V46.071A3.687,3.687,0,0,1,68.848,42.4h.3a3.687,3.687,0,0,1,3.216,1.858L85.631,62.044V46.071A3.687,3.687,0,0,1,89.3,42.4h.3a3.687,3.687,0,0,1,3.673,3.673Zm26.261-26.852a3.68,3.68,0,0,1-3.666,3.673H105.594v5.812h10.217a3.673,3.673,0,0,1,3.666,3.666v.31a3.673,3.673,0,0,1-3.666,3.666H105.594v5.812h10.217a3.68,3.68,0,0,1,3.666,3.666v.31a3.68,3.68,0,0,1-3.666,3.673H101.618a3.687,3.687,0,0,1-3.673-3.673V46.134a3.687,3.687,0,0,1,3.673-3.673h14.193a3.68,3.68,0,0,1,3.666,3.673Z" transform="translate(-2 -2.641)" fill="#272727"/>
</svg>
