<svg xmlns="http://www.w3.org/2000/svg" width="43.81" height="41" viewBox="0 0 43.81 41">
  <g id="Group_122" data-name="Group 122" transform="translate(-1510.154 -25.681)">
    <rect id="Rectangle_202" data-name="Rectangle 202" width="32" height="18" transform="translate(1517 35)" fill="#02c755"/>
    <path id="Path_18" data-name="Path 18" d="M23.9,2.641C11.807,2.641,2,10.494,2,20.18c0,8.635,7.792,15.813,18.054,17.27.241.033.484.064.727.092,3.494.727.464,5.1,1.61,5.993C23.705,44.564,33.676,37.9,39.735,32.3a18.921,18.921,0,0,0,2.385-2.366l.013-.013a4.536,4.536,0,0,0,.405-.508,14.992,14.992,0,0,0,3.27-9.231c0-9.686-9.807-17.539-21.9-17.539Zm-7.15,21.992a1.143,1.143,0,0,1-1.141,1.141H11.2a1.146,1.146,0,0,1-1.143-1.141V16.161A1.148,1.148,0,0,1,11.2,15.017h.094a1.148,1.148,0,0,1,1.143,1.143v7.229h3.176a1.143,1.143,0,0,1,1.141,1.141Zm3.3,0a1.146,1.146,0,0,1-1.143,1.141h-.094a1.146,1.146,0,0,1-1.143-1.141V16.161a1.148,1.148,0,0,1,1.143-1.143h.094a1.148,1.148,0,0,1,1.143,1.143Zm10.348,0a1.148,1.148,0,0,1-.331.8.775.775,0,0,1-.278.206,1.113,1.113,0,0,1-.534.134h-.1a1.139,1.139,0,0,1-.438-.085.944.944,0,0,1-.438-.329,1.1,1.1,0,0,1-.085-.114l-4.162-5.68v5.067a1.146,1.146,0,0,1-1.143,1.141h-.085a1.146,1.146,0,0,1-1.143-1.141V16.161a1.148,1.148,0,0,1,1.143-1.143H22.9a1.148,1.148,0,0,1,1,.578l4.129,5.538V16.161a1.148,1.148,0,0,1,1.143-1.143h.094a1.148,1.148,0,0,1,1.143,1.143Zm8.175-8.359a1.146,1.146,0,0,1-1.141,1.143H34.248v1.809h3.181a1.143,1.143,0,0,1,1.141,1.141v.1a1.143,1.143,0,0,1-1.141,1.141H34.248v1.809h3.181a1.146,1.146,0,0,1,1.141,1.141v.1A1.146,1.146,0,0,1,37.429,25.8H33.011a1.148,1.148,0,0,1-1.143-1.143V16.18a1.148,1.148,0,0,1,1.143-1.143h4.418A1.146,1.146,0,0,1,38.57,16.18Z" transform="translate(1508.154 23.04)" fill="#fff"/>
  </g>
</svg>
