<svg id="Group_2" data-name="Group 2" xmlns="http://www.w3.org/2000/svg" xmlns:xlink="http://www.w3.org/1999/xlink" width="274.12" height="99.362" viewBox="0 0 274.12 99.362">
  <defs>
    <clipPath id="clip-path">
      <rect id="Rectangle_2" data-name="Rectangle 2" width="274.12" height="99.362" fill="none"/>
    </clipPath>
  </defs>
  <g id="Group_1" data-name="Group 1" clip-path="url(#clip-path)">
    <path id="Path_1" data-name="Path 1" d="M44.973,56.306c-.772-2.017-.257-3.777,1.305-4.647,1.7-.91,4.411-.415,5.261-2.373a29.364,29.364,0,0,1,1.424-3.323,4.871,4.871,0,0,1,5.162-2.3c1.6.408,2.667,2.157,3.455,3.85,1.066,2.292,1.043,5.554,2.984,10.137-.475.356-.881.631-1.4.948a41.359,41.359,0,0,1-4.9,2.67.7.7,0,0,0-.2.139.69.69,0,0,0-.2.474v.04a18.468,18.468,0,0,0-2.354.158,10.776,10.776,0,0,1-3.639-.119,9.615,9.615,0,0,1-6.9-5.657" transform="translate(-16.168 -15.774)" fill="#9180a3"/>
    <path id="Path_2" data-name="Path 2" d="M61.223,80.96c-.593,1.662-1.207,3.3-1.642,5.023a14.078,14.078,0,0,1-1.7,4c-1.641,2.69-4.251,4.668-7.179,4.806a4.761,4.761,0,0,1-4.569-2.67c-.93-1.919.079-4.806-1.88-6.211-1.147-.81-2.531-1.285-3.638-2.116a4.747,4.747,0,0,1-.692-6.862,11.755,11.755,0,0,1,6.25-3.165c2.255-.317,4.45.534,6.744.751a22.555,22.555,0,0,0,3.995-.119,30.087,30.087,0,0,1,4,5.914c.1.218.217.436.316.653" transform="translate(-14.044 -26.702)" fill="#9180a3"/>
    <path id="Path_3" data-name="Path 3" d="M90.876,43.083a10.463,10.463,0,0,1-1.384,5.834c-1.068,1.722-2.848,2.69-4.351,4-.87.751-1.622,1.7-2.433,2.531a15.076,15.076,0,0,0-1.721,1.938c-.534-.87-1.029-1.76-1.463-2.551l-.1-.2c-.178-.317-.356-.613-.534-.95l-.08-.119a.717.717,0,0,0-.514-.217.706.706,0,0,0-.474.179c-.317.257-1.067.864-1.4,1.121-1.372-3.7-2.838-6.486-3.194-7.535a7.163,7.163,0,0,1,.74-6.738,3.8,3.8,0,0,1,4.094-1.484c1.7.476,2.966,2.651,4.885,2.156,1.108-.277,2.156-.89,3.263-1.127a3.938,3.938,0,0,1,4.668,3.165" transform="translate(-26.352 -14.042)" fill="#9180a3"/>
    <path id="Path_4" data-name="Path 4" d="M94.367,93.491a5.15,5.15,0,0,1-3.382,4.292l-.237.079c-2.116.613-4.865-.772-6.586,1.029-1.009,1.048-1.72,2.452-2.729,3.481a4.943,4.943,0,0,1-7.338-.436,14.117,14.117,0,0,1-2.433-7.891c.1-2.73,1.563-4.945,2.492-7.338a6.867,6.867,0,0,0,.3-.91l.079.04.2-.04a1.936,1.936,0,0,0,.673-.356l.83-.673c.376-.3.732-.553,1.108-.83.89-.653,1.622-1.167,2.314-1.583,1.029-.672,2.077-1.285,3.283-1.918.138.1.258.2.4.316a23.628,23.628,0,0,0,4.45,2.986A18.033,18.033,0,0,1,91.124,86a8.716,8.716,0,0,1,3.244,7.5" transform="translate(-25.967 -29.147)" fill="#9180a3"/>
    <path id="Path_5" data-name="Path 5" d="M103.586,75.129a11.381,11.381,0,0,1-6.19-.138c-2.057-.712-3.6-2.294-5.419-3.54a17.806,17.806,0,0,0-1.919-1.088.589.589,0,0,0,.178-.574l.04-.04-.119-.178c-.02-.04-.02-.059-.04-.059l-.593-.83c-.93-1.266-1.879-2.572-2.73-3.956-.119-.158-.217-.336-.336-.514.653-.515,1.266-1.069,1.879-1.563a29.592,29.592,0,0,0,3.54-3.343,11.43,11.43,0,0,1,2.868-2.452,9.058,9.058,0,0,1,8.307-.831,3.963,3.963,0,0,1,2.531,4.173c-.277,1.978-2.452,3.817-1.523,5.834.534,1.147,1.345,2.176,1.8,3.343.791,2.136-.257,5.1-2.274,5.755" transform="translate(-31.328 -20.06)" fill="#9180a3"/>
    <path id="Path_6" data-name="Path 6" d="M78.675,68.687h-.02c-.135-.221-.27-.443-.383-.645a19.449,19.449,0,0,1-1.048-1.979,16.355,16.355,0,0,1-.865-2.071c-.256.281-.513.542-.789.824a32.53,32.53,0,0,1-3.153,2.492,20.413,20.413,0,0,1-4.6,2.167.6.6,0,0,1,.152.159h.02a12.879,12.879,0,0,1,1.3,1.284A18.539,18.539,0,0,1,71.3,73.493a17.007,17.007,0,0,1,1.228,2.282,1.821,1.821,0,0,1,.205.4c.188.467.377.955.545,1.423l.225.818c.139-.131.318-.285.516-.481,1.033-.919,2.762-2.452,3.344-2.832a25.3,25.3,0,0,1,3.459-1.74c.427-.165.854-.331,1.282-.476-.325-.316-.652-.631-.958-.99l-.022-.02a20.8,20.8,0,0,1-2.072-2.614c-.111-.161-.244-.341-.356-.522a.077.077,0,0,1-.024-.061m.585,2.271c.066.08.111.161.178.261.2.281.4.582.6.883a.453.453,0,0,1,.055.288.394.394,0,0,1-.134.234h-.02c-.06.045-.261.158-.383.226a29.246,29.246,0,0,0-2.6,1.513c-.5.314-.984.648-1.425.959l-.96.708-.26.2a1.115,1.115,0,0,1-.446.208h-.021c-.1-.015-.191-.115-.351-.418L73.474,76l-.277-.587c-.115-.244-.229-.465-.365-.708-.022-.02-.024-.061-.045-.08a13.3,13.3,0,0,0-.88-1.512,23.741,23.741,0,0,0-1.773-2.421c-.131-.138-.241-.278-.351-.418a.268.268,0,0,1-.1-.244.294.294,0,0,1,.112-.254l.08-.066.04-.022.384-.2c.888-.478,1.736-.933,2.56-1.469a8.577,8.577,0,0,0,.782-.535c.521-.356,1.042-.733,1.581-1.152l.42-.311a.382.382,0,0,1,.265-.1.308.308,0,0,1,.147.034c.043.04.085.058.108.1l.044.06.337.543c.157.241.314.5.45.745l.022.04c.182.343.385.685.587,1.007.022.02.022.04.043.04l.4.664c.247.4.515.8.782,1.185.134.2.289.421.423.622" transform="translate(-24.574 -23.188)" fill="#9180a3"/>
    <path id="Path_7" data-name="Path 7" d="M79.812,72.853A12.412,12.412,0,0,1,78.8,71.514a11.786,11.786,0,0,1-1.332-2.732,11.6,11.6,0,0,1-2.249,1.91c-.423.248-.847.476-1.232.66a4.63,4.63,0,0,1-.67.3,1.015,1.015,0,0,1-.223.094c-.02,0-.04.022-.062,0l-.02.022-.428.145.13.119a5.7,5.7,0,0,1,.5.494,10.4,10.4,0,0,1,1.165,1.415c.066.08.133.18.2.28.158.262.293.5.429.746.161.324.32.627.439.932.117.284.235.59.333.9l.075.265.138-.151.675-.613c.02-.022.06-.044.08-.066a11.523,11.523,0,0,1,1.381-1A13.149,13.149,0,0,1,80.8,73.925a12.187,12.187,0,0,1-.982-1.051Z" transform="translate(-26.299 -24.923)" fill="#9180a3"/>
    <path id="Path_8" data-name="Path 8" d="M150.095,81.193V70.035c0-5.948-5.3-5.856-5.3-5.856s-5.534,2.352-5.534,5.948V81.193h-4.61V61.228a1.183,1.183,0,0,0-1.245-1.337h-1.015l1.752-3.689h.415a4.222,4.222,0,0,1,3.5,1.66,6.063,6.063,0,0,1,1.2,3.873v3c1.569-2.075,5.257-3.5,6.133-5.671a3.987,3.987,0,0,0-.138-2.72l5.21.046v1.476c0,2.767-2.72,4.427-2.72,4.427s6.916,1.844,6.916,7.746V81.193Z" transform="translate(-47.971 -20.365)" fill="#fff"/>
    <path id="Path_9" data-name="Path 9" d="M183.048,81.8c-3.043,0-5.21-.692-6.317-2.121l3.136-2.075c.461,1.06,1.429,1.476,3.181,1.476,2.951,0,4.8-2.72,4.8-5.671V70.869c0-3-2.4-4.426-4.2-5.164-2.4-.969-5.625-.876-8.393-.876l-1.428-2.4a9.72,9.72,0,0,1,9.36-5.579c2.581,0,5.025,1.015,6.593,1.015a2.914,2.914,0,0,0,1.659-.691c.139.046,1.2.414,1.2,2.213a2.582,2.582,0,0,1-2.858,2.489A5.8,5.8,0,0,1,186.921,61a9.036,9.036,0,0,0-4.888-1.291,5.176,5.176,0,0,0-4.1,2.352c1.983.047,6.409.323,9.268,1.8,3.6,1.8,5.21,3.966,5.21,7.008v2.582c0,4.7-4.518,8.346-9.36,8.346" transform="translate(-62.986 -20.6)" fill="#fff"/>
    <path id="Path_10" data-name="Path 10" d="M191.027,46.987s-2.076-.969-7.147-.969h-6.871v-2.95l.554-.046a63.879,63.879,0,0,1,8.3-.462,15.723,15.723,0,0,1,3.366.323V39.932h4.289v7.055Z" transform="translate(-64.139 -14.469)" fill="#fff"/>
    <path id="Path_11" data-name="Path 11" d="M221.313,81.515c-8.3,0-11.112-6.225-11.112-12.311,0-7.008,5.393-13,11.987-13,6.548,0,10.928,3.135,10.928,9.037V81.193H228.6V65.239c0-3.5-1.982-5.717-6.409-5.717-4.657,0-7.285,4.242-7.285,9.637,0,4.38,1.476,9.359,6.04,9.359a5.432,5.432,0,0,0,3.827-1.89L226.8,79.9a10.513,10.513,0,0,1-5.486,1.614" transform="translate(-76.167 -20.365)" fill="#fff"/>
    <path id="Path_12" data-name="Path 12" d="M275.474,56.866V81.35h-4.518v-.692c0-4.1-4.564-9.313-9.406-9.313V81.35H257.03v-.507a8.693,8.693,0,0,0-1.476-3.92c-1.521-2.213-2.628-2.489-2.628-2.489l-.276-2.537a10.668,10.668,0,0,1,4.379-2.859v-6.87a1.751,1.751,0,0,0-1.752-1.521l-.23.046,1.338-4.057a5.458,5.458,0,0,1,5.21,5.21l-.046,5.9-.276.692a15.17,15.17,0,0,1,9.682,4.057l.692.738a5.334,5.334,0,0,0-.277-1.014,4.878,4.878,0,0,0-.415-.876V56.866ZM257.03,71.944a3.753,3.753,0,0,0-2.166,1.245,19.437,19.437,0,0,1,2.166,3.827Z" transform="translate(-91.548 -20.522)" fill="#9180a3"/>
    <path id="Path_13" data-name="Path 13" d="M305.85,81.088V64.9c0-4.427-2.951-6.362-6.04-6.362a9.947,9.947,0,0,0-4.288,1.06l-1.291-1.982a11.62,11.62,0,0,1,6.179-1.706c4.934,0,10.005,3.55,10.005,8.991V81.088Z" transform="translate(-106.615 -20.26)" fill="#9180a3"/>
    <path id="Path_14" data-name="Path 14" d="M348.225,64.165V81.271h-4.518v-4.1c0-5.488-2.859-8.761-6.455-8.761-3.873,0-5.21,3-5.21,5.487a5.106,5.106,0,0,0,4.979,5.118,5.01,5.01,0,0,0,3.227-1.153l1.43,3.181a13.815,13.815,0,0,1-4.8.83c-3.827,0-9.314-2.213-9.314-7.977,0-6.409,5.718-8.3,9.683-8.3a11.191,11.191,0,0,1,6.455,2.121V64.3c0-3.32-2.305-5.026-6.086-5.026-3.274,0-5.256,1.568-5.809,2.674l-2.121-1.2a9.4,9.4,0,0,1,8.254-4.334c5.994,0,10.281,2.859,10.281,7.746" transform="translate(-118.695 -20.443)" fill="#9180a3"/>
    <path id="Path_15" data-name="Path 15" d="M377.371,81.088V64.9c0-4.427-2.951-6.362-6.04-6.362a9.947,9.947,0,0,0-4.288,1.06l-1.291-1.982a11.62,11.62,0,0,1,6.179-1.706c4.934,0,10.005,3.55,10.005,8.991V81.088Z" transform="translate(-132.531 -20.26)" fill="#9180a3"/>
  </g>
</svg>
