<svg id="Group_46" data-name="Group 46" xmlns="http://www.w3.org/2000/svg" xmlns:xlink="http://www.w3.org/1999/xlink" width="371.1" height="134.515" viewBox="0 0 371.1 134.515">
  <defs>
    <clipPath id="clip-path">
      <rect id="Rectangle_85" data-name="Rectangle 85" width="371.1" height="134.514" fill="none"/>
    </clipPath>
  </defs>
  <g id="Group_45" data-name="Group 45" clip-path="url(#clip-path)">
    <path id="Path_23" data-name="Path 23" d="M45.1,60.824c-1.045-2.73-.348-5.113,1.767-6.291,2.3-1.232,5.971-.562,7.123-3.213a39.751,39.751,0,0,1,1.928-4.5c1.66-2.436,4.356-3.8,6.988-3.109,2.164.552,3.611,2.92,4.677,5.212,1.443,3.1,1.412,7.519,4.04,13.724-.643.482-1.193.855-1.889,1.283a55.993,55.993,0,0,1-6.64,3.614.946.946,0,0,0-.268.188.935.935,0,0,0-.268.642v.054a25,25,0,0,0-3.186.214,14.589,14.589,0,0,1-4.927-.161A13.016,13.016,0,0,1,45.1,60.824" transform="translate(-6.102 -5.953)" fill="#9180a3"/>
    <path id="Path_24" data-name="Path 24" d="M69.171,83.532c-.8,2.25-1.634,4.472-2.223,6.8a19.059,19.059,0,0,1-2.3,5.409c-2.221,3.641-5.755,6.319-9.718,6.506a6.446,6.446,0,0,1-6.185-3.614c-1.259-2.6.107-6.506-2.545-8.408-1.553-1.1-3.426-1.74-4.926-2.865-2.785-1.981-3.481-6.72-.937-9.29a15.914,15.914,0,0,1,8.461-4.284c3.052-.429,6.025.723,9.13,1.017a30.536,30.536,0,0,0,5.408-.161,40.731,40.731,0,0,1,5.409,8.006c.133.3.293.59.428.884" transform="translate(-5.3 -10.078)" fill="#9180a3"/>
    <path id="Path_25" data-name="Path 25" d="M97.3,44.614a14.164,14.164,0,0,1-1.874,7.9c-1.446,2.331-3.855,3.641-5.891,5.409-1.178,1.017-2.2,2.3-3.293,3.427a20.41,20.41,0,0,0-2.33,2.623c-.723-1.177-1.392-2.383-1.981-3.454l-.134-.267c-.241-.429-.482-.83-.723-1.286l-.108-.161a.97.97,0,0,0-.7-.294.956.956,0,0,0-.642.242c-.429.348-1.445,1.17-1.9,1.518-1.858-5.007-3.842-8.781-4.324-10.2-1.045-3.052-1.006-6.472,1-9.122a5.147,5.147,0,0,1,5.543-2.01c2.3.644,4.016,3.588,6.613,2.919,1.5-.375,2.919-1.2,4.418-1.526C93.71,39.715,97,41.7,97.3,44.614" transform="translate(-9.946 -5.3)" fill="#9180a3"/>
    <path id="Path_26" data-name="Path 26" d="M102.4,98.109a6.972,6.972,0,0,1-4.579,5.81l-.321.107c-2.865.83-6.587-1.045-8.916,1.392-1.366,1.419-2.329,3.32-3.695,4.712a6.691,6.691,0,0,1-9.934-.59c-2.115-2.65-3.32-7.416-3.293-10.683.134-3.7,2.116-6.694,3.374-9.934a9.294,9.294,0,0,0,.4-1.232l.107.054.268-.054a2.621,2.621,0,0,0,.911-.482l1.124-.911c.508-.4.991-.749,1.5-1.124,1.205-.884,2.2-1.58,3.133-2.143,1.392-.91,2.812-1.74,4.445-2.6.187.134.349.268.536.428a31.987,31.987,0,0,0,6.025,4.043,24.411,24.411,0,0,1,4.524,3.052A11.8,11.8,0,0,1,102.4,98.109" transform="translate(-9.8 -11.001)" fill="#9180a3"/>
    <path id="Path_27" data-name="Path 27" d="M109.645,82.122a15.407,15.407,0,0,1-8.38-.187c-2.785-.964-4.874-3.106-7.337-4.793a24.106,24.106,0,0,0-2.6-1.473.8.8,0,0,0,.241-.777l.054-.054-.161-.241c-.027-.054-.027-.08-.054-.08l-.8-1.124c-1.259-1.714-2.544-3.481-3.7-5.356-.161-.214-.294-.455-.455-.7.884-.7,1.714-1.447,2.544-2.116A40.062,40.062,0,0,0,93.795,60.7a15.474,15.474,0,0,1,3.882-3.32,12.262,12.262,0,0,1,11.246-1.125,5.364,5.364,0,0,1,3.427,5.65c-.375,2.678-3.32,5.167-2.062,7.9.723,1.553,1.821,2.945,2.437,4.525,1.07,2.892-.348,6.909-3.079,7.792" transform="translate(-11.824 -7.571)" fill="#9180a3"/>
    <path id="Path_28" data-name="Path 28" d="M82.516,70.347l-.028,0c-.182-.3-.365-.6-.519-.873A26.332,26.332,0,0,1,80.551,66.8a22.141,22.141,0,0,1-1.171-2.8c-.346.381-.694.734-1.069,1.116a44.036,44.036,0,0,1-4.269,3.374,27.635,27.635,0,0,1-6.224,2.933.811.811,0,0,1,.206.215l.028,0a17.435,17.435,0,0,1,1.766,1.739,25.1,25.1,0,0,1,2.718,3.487A23.022,23.022,0,0,1,74.2,79.943a2.467,2.467,0,0,1,.278.548c.255.632.511,1.293.738,1.927l.3,1.108c.188-.178.431-.386.7-.651,1.4-1.244,3.739-3.319,4.527-3.834a34.244,34.244,0,0,1,4.682-2.356c.578-.224,1.156-.448,1.735-.644-.44-.427-.882-.855-1.3-1.34l-.029-.027a28.163,28.163,0,0,1-2.806-3.538c-.15-.218-.331-.461-.483-.706a.1.1,0,0,1-.032-.083m.792,3.075c.089.108.15.218.241.353.271.38.543.787.815,1.195a.614.614,0,0,1,.074.389.533.533,0,0,1-.181.317h-.028c-.081.06-.354.214-.518.306a39.589,39.589,0,0,0-3.519,2.048c-.68.425-1.332.877-1.928,1.3l-1.3.959-.351.269a1.509,1.509,0,0,1-.6.281H75.98c-.141-.021-.259-.155-.476-.565l-.029-.027-.375-.8c-.155-.33-.31-.63-.495-.958-.029-.027-.032-.083-.061-.109a18.013,18.013,0,0,0-1.191-2.047,32.143,32.143,0,0,0-2.4-3.278c-.177-.187-.326-.376-.475-.565a.362.362,0,0,1-.129-.331.4.4,0,0,1,.152-.344l.108-.09.054-.03.52-.277c1.2-.647,2.351-1.263,3.466-1.989a11.608,11.608,0,0,0,1.059-.724c.705-.483,1.411-.993,2.14-1.56l.569-.42a.518.518,0,0,1,.358-.129.417.417,0,0,1,.2.047c.059.054.116.079.147.134l.06.081.456.735c.212.326.426.681.609,1.009l.03.054c.247.464.521.928.8,1.364.029.027.03.054.058.054l.548.9c.335.545.7,1.089,1.058,1.6.181.272.392.57.573.842" transform="translate(-9.275 -8.752)" fill="#9180a3"/>
    <path id="Path_29" data-name="Path 29" d="M82.371,74.294a16.806,16.806,0,0,1-1.377-1.813,15.955,15.955,0,0,1-1.8-3.7,15.7,15.7,0,0,1-3.045,2.585c-.573.336-1.147.644-1.668.893a6.266,6.266,0,0,1-.906.407,1.373,1.373,0,0,1-.3.127c-.028,0-.054.03-.084,0l-.027.029-.579.2.176.161a7.72,7.72,0,0,1,.677.668,14.074,14.074,0,0,1,1.577,1.916c.09.108.18.243.271.379.213.355.4.683.581,1.01.218.439.433.849.594,1.261.158.385.319.8.451,1.213l.1.359.186-.2.913-.83c.027-.029.081-.06.108-.089a15.6,15.6,0,0,1,1.87-1.352A17.8,17.8,0,0,1,83.7,75.744a16.5,16.5,0,0,1-1.329-1.423Z" transform="translate(-9.926 -9.407)" fill="#9180a3"/>
    <path id="Path_30" data-name="Path 30" d="M156.359,90.034V74.928c0-8.052-7.178-7.927-7.178-7.927s-7.491,3.184-7.491,8.052V90.034h-6.241V63.006a1.6,1.6,0,0,0-1.685-1.81h-1.374l2.372-4.994h.562a5.716,5.716,0,0,1,4.744,2.247,8.208,8.208,0,0,1,1.623,5.243V67.75c2.124-2.809,7.117-4.743,8.3-7.678a5.4,5.4,0,0,0-.187-3.683l7.054.062v2c0,3.746-3.683,5.993-3.683,5.993s9.363,2.5,9.363,10.487V90.034Z" transform="translate(-18.106 -7.686)" fill="#fff"/>
    <path id="Path_31" data-name="Path 31" d="M186.31,90.622c-4.119,0-7.054-.937-8.552-2.871L182,84.942c.624,1.436,1.935,2,4.307,2,4,0,6.492-3.683,6.492-7.678V75.828c0-4.056-3.247-5.992-5.68-6.991-3.247-1.311-7.616-1.186-11.362-1.186l-1.934-3.246A13.159,13.159,0,0,1,186.5,56.852c3.494,0,6.8,1.373,8.926,1.373a3.945,3.945,0,0,0,2.246-.936c.188.062,1.623.561,1.623,3,0,2-1.623,3.37-3.869,3.37a7.846,7.846,0,0,1-3.871-1.186,12.233,12.233,0,0,0-6.617-1.748,7.007,7.007,0,0,0-5.556,3.184c2.685.063,8.676.437,12.547,2.434,4.87,2.435,7.054,5.368,7.054,9.488v3.5c0,6.366-6.117,11.3-12.672,11.3" transform="translate(-23.773 -7.775)" fill="#fff"/>
    <path id="Path_32" data-name="Path 32" d="M195.986,49.483s-2.81-1.311-9.676-1.311h-9.3V44.177l.75-.062a86.476,86.476,0,0,1,11.235-.625,21.285,21.285,0,0,1,4.557.437v-4h5.806v9.551Z" transform="translate(-24.208 -5.461)" fill="#fff"/>
    <path id="Path_33" data-name="Path 33" d="M225.244,90.471c-11.236,0-15.043-8.427-15.043-16.667,0-9.488,7.3-17.6,16.228-17.6,8.865,0,14.794,4.245,14.794,12.234v21.6h-6.118v-21.6c0-4.744-2.684-7.74-8.676-7.74-6.3,0-9.862,5.742-9.862,13.046,0,5.93,2,12.671,8.177,12.671a7.354,7.354,0,0,0,5.181-2.559l2.746,4.432a14.233,14.233,0,0,1-7.427,2.185" transform="translate(-28.747 -7.686)" fill="#fff"/>
    <path id="Path_34" data-name="Path 34" d="M283.548,56.948V90.093h-6.117v-.937c0-5.555-6.179-12.608-12.734-12.608V90.093H258.58v-.686a11.768,11.768,0,0,0-2-5.306c-2.06-3-3.557-3.37-3.557-3.37l-.374-3.434a14.442,14.442,0,0,1,5.929-3.87v-9.3a2.37,2.37,0,0,0-2.372-2.06l-.312.062,1.811-5.493a7.389,7.389,0,0,1,7.053,7.054l-.062,7.989-.374.937c4.931,0,9.924,2.559,13.107,5.493l.937,1a7.219,7.219,0,0,0-.375-1.373,6.6,6.6,0,0,0-.562-1.186v-19.6ZM258.58,77.36c-1.436,0-2.932,1.685-2.932,1.685a26.312,26.312,0,0,1,2.932,5.181Z" transform="translate(-34.553 -7.746)" fill="#9180a3"/>
    <path id="Path_35" data-name="Path 35" d="M309.961,89.995V68.085c0-5.993-4-8.613-8.177-8.613a13.466,13.466,0,0,0-5.8,1.435l-1.748-2.684a15.731,15.731,0,0,1,8.365-2.309c6.679,0,13.545,4.807,13.545,12.172v21.91Z" transform="translate(-40.239 -7.647)" fill="#9180a3"/>
    <path id="Path_36" data-name="Path 36" d="M355.533,66.906V90.064h-6.117V84.509c0-7.429-3.871-11.861-8.739-11.861-5.243,0-7.053,4.058-7.053,7.428a6.912,6.912,0,0,0,6.741,6.929,6.783,6.783,0,0,0,4.369-1.561l1.935,4.307a18.7,18.7,0,0,1-6.492,1.124c-5.18,0-12.609-3-12.609-10.8,0-8.676,7.742-11.236,13.109-11.236a15.15,15.15,0,0,1,8.739,2.872V67.093c0-4.494-3.121-6.8-8.24-6.8-4.432,0-7.116,2.123-7.864,3.62l-2.872-1.623c2-3.557,6.366-5.867,11.174-5.867,8.115,0,13.919,3.87,13.919,10.487" transform="translate(-44.798 -7.716)" fill="#9180a3"/>
    <path id="Path_37" data-name="Path 37" d="M381.482,89.995V68.085c0-5.993-4-8.613-8.177-8.613a13.466,13.466,0,0,0-5.8,1.435l-1.748-2.684a15.731,15.731,0,0,1,8.365-2.309c6.679,0,13.545,4.807,13.545,12.172v21.91Z" transform="translate(-50.02 -7.647)" fill="#9180a3"/>
  </g>
</svg>
