<svg xmlns="http://www.w3.org/2000/svg" width="45.148" height="28.63" viewBox="0 0 45.148 28.63">
  <path id="Path_40" data-name="Path 40" d="M22.792,38.315,9,47.3V29.335Zm17.564,0L54.148,47.3V29.335Zm-2.015,1.316-6.167,4.014a1.11,1.11,0,0,1-1.2,0l-6.167-4.014-14.893,9.7-.864.562A3.311,3.311,0,0,0,12.3,52.63H50.844A3.306,3.306,0,0,0,54.1,49.888l-.87-.562-14.888-9.7ZM31.574,41.4,53.228,27.3l.87-.562A3.306,3.306,0,0,0,50.844,24H12.3A3.311,3.311,0,0,0,9.05,26.742l.864.562Z" transform="translate(-9 -24)" fill="#fff"/>
</svg>
