<svg id="Group_123" data-name="Group 123" xmlns="http://www.w3.org/2000/svg" width="89.6" height="92.195" viewBox="0 0 128 131.707">
  <path id="Path_16" data-name="Path 16" d="M29.924,48.384a2.734,2.734,0,0,0,2.744,2.744,5.662,5.662,0,0,1,5.652,5.652,2.744,2.744,0,0,0,5.488,0,11.148,11.148,0,0,0-11.14-11.14,2.752,2.752,0,0,0-2.744,2.744Zm44.671,11.14a2.734,2.734,0,0,0,2.744-2.744A44.71,44.71,0,0,0,32.668,12.11a2.744,2.744,0,1,0,0,5.488A39.224,39.224,0,0,1,71.851,56.781,2.752,2.752,0,0,0,74.595,59.525Z" transform="translate(33.868 4.655)" fill="#fff"/>
  <path id="Path_17" data-name="Path 17" d="M95.629,67.436a2.744,2.744,0,0,0,5.488,0A27.929,27.929,0,0,0,73.212,39.53a2.744,2.744,0,1,0,0,5.488A22.443,22.443,0,0,1,95.629,67.436ZM73.212,6a2.744,2.744,0,1,0,0,5.488,56.028,56.028,0,0,1,55.976,55.948,2.744,2.744,0,0,0,5.488,0A61.515,61.515,0,0,0,73.212,6ZM100.02,96.357,96.425,98.3a15.816,15.816,0,0,1-18.659-2.716L48.791,66.613a15.851,15.851,0,0,1-2.716-18.686l1.948-3.567a21.135,21.135,0,0,0,2.332-13.171A21.153,21.153,0,0,0,29.364,13a21.125,21.125,0,0,0-15.037,6.2l-1.4,1.427C5.519,28.034,4.669,40.793,10.513,56.6c5.515,15.091,16.628,31.445,31.226,46.043,22.253,22.253,47.031,35.067,64.811,35.067,7.024,0,12.979-2,17.2-6.229l1.427-1.427a21.238,21.238,0,0,0,6.229-15.037,21.255,21.255,0,0,0-31.39-18.659Z" transform="translate(-6.675 -6)" fill="#fff"/>
</svg> 