<svg xmlns="http://www.w3.org/2000/svg" width="39.846" height="41" viewBox="0 0 39.846 41">
  <g id="Group_47" data-name="Group 47" transform="translate(-6.675 -6)">
    <path id="Path_16" data-name="Path 16" d="M29.924,23.4a.851.851,0,0,0,.854.854,1.763,1.763,0,0,1,1.76,1.76.854.854,0,1,0,1.708,0,3.47,3.47,0,0,0-3.468-3.468.857.857,0,0,0-.854.854ZM43.83,26.87a.851.851,0,0,0,.854-.854A13.918,13.918,0,0,0,30.778,12.11a.854.854,0,0,0,0,1.708,12.21,12.21,0,0,1,12.2,12.2A.857.857,0,0,0,43.83,26.87Z" transform="translate(-3.39 -0.891)" fill="#fff"/>
    <path id="Path_17" data-name="Path 17" d="M34.366,25.125a.854.854,0,1,0,1.708,0,8.694,8.694,0,0,0-8.687-8.687.854.854,0,0,0,0,1.708A6.986,6.986,0,0,1,34.366,25.125ZM27.388,6a.854.854,0,1,0,0,1.708A17.441,17.441,0,0,1,44.813,25.125a.854.854,0,1,0,1.708,0A19.149,19.149,0,0,0,27.388,6Zm8.345,28.128-1.119.606a4.923,4.923,0,0,1-5.808-.846l-9.02-9.02a4.934,4.934,0,0,1-.846-5.817l.606-1.11a6.579,6.579,0,0,0,.726-4.1,6.585,6.585,0,0,0-6.534-5.663,6.576,6.576,0,0,0-4.681,1.93l-.436.444c-2.306,2.306-2.571,6.278-.752,11.2a41.5,41.5,0,0,0,9.72,14.333C24.518,43.011,32.231,47,37.766,47a7.324,7.324,0,0,0,5.356-1.939l.444-.444A6.611,6.611,0,0,0,45.5,39.936a6.616,6.616,0,0,0-9.772-5.808Z" fill="#fff"/>
  </g>
</svg>
