<svg xmlns="http://www.w3.org/2000/svg" width="29.877" height="30.04" viewBox="0 0 29.877 30.04">
  <g id="Layer_2" data-name="Layer 2" transform="translate(-1.053 -0.96)">
    <circle id="Ellipse_11" data-name="Ellipse 11" cx="6" cy="6" r="6" transform="translate(10 0.96)" fill="#000"/>
    <path id="Path_21" data-name="Path 21" d="M30.86,26.84a15.07,15.07,0,0,0-4.11-7.47A12.47,12.47,0,0,0,25.13,18,15,15,0,0,0,16,15,15.24,15.24,0,0,0,5.24,19.37a15.07,15.07,0,0,0-4.11,7.47,3.42,3.42,0,0,0,.69,2.88A3.52,3.52,0,0,0,4.58,31H27.42a3.52,3.52,0,0,0,2.75-1.32A3.42,3.42,0,0,0,30.86,26.84Z" fill="#000"/>
  </g>
</svg>
