<svg id="Group_130" data-name="Group 130" xmlns="http://www.w3.org/2000/svg" xmlns:xlink="http://www.w3.org/1999/xlink" width="89.6" height="92.195" viewBox="0 0 138.647 142.287">
  <defs>
    <clipPath id="clip-path">
      <rect id="Rectangle_208" data-name="Rectangle 208" width="138.647" height="142.287" fill="none"/>
    </clipPath>
  </defs>
  <g id="Group_127" data-name="Group 127">
    <g id="Group_126" data-name="Group 126" clip-path="url(#clip-path)">
      <path id="Path_490" data-name="Path 490" d="M114.3,78.131a58.8,58.8,0,0,0,0-38.683,3.914,3.914,0,0,0-.187-.529,58.788,58.788,0,0,0-110.657,0,3.8,3.8,0,0,0-.187.529,58.8,58.8,0,0,0,0,38.683,4.258,4.258,0,0,0,.187.53,58.788,58.788,0,0,0,110.657,0,3.884,3.884,0,0,0,.187-.53M58.788,109.152c-2.239,0-5.849-4.053-8.866-13.1A92.3,92.3,0,0,1,46.452,81.2H71.124a92.2,92.2,0,0,1-3.47,14.852c-3.017,9.052-6.628,13.1-8.866,13.1M45.429,72.767c-.407-4.493-.62-9.181-.62-13.979s.214-9.484.62-13.977H72.147c.4,4.493.618,9.179.618,13.977s-.214,9.486-.618,13.979Zm-37-13.979A50.128,50.128,0,0,1,10.4,44.811H36.976c-.395,4.587-.595,9.285-.595,13.977s.2,9.393.595,13.979H10.4A50.138,50.138,0,0,1,8.427,58.788M58.788,8.427c2.238,0,5.849,4.053,8.866,13.1a92.1,92.1,0,0,1,3.47,14.852H46.452a92.032,92.032,0,0,1,3.47-14.852c3.017-9.052,6.627-13.1,8.866-13.1M80.6,44.811h26.573a50.431,50.431,0,0,1,0,27.956H80.6c.395-4.586.592-9.285.592-13.979s-.2-9.39-.592-13.977m23.282-8.427H79.635c-1.5-10.337-4.071-19.609-7.679-26.207a50.583,50.583,0,0,1,31.926,26.207M45.62,10.178c-3.608,6.6-6.178,15.87-7.679,26.207H13.694A50.587,50.587,0,0,1,45.62,10.178M13.694,81.2H37.941c1.5,10.337,4.071,19.609,7.679,26.207A50.6,50.6,0,0,1,13.694,81.2M71.956,107.4c3.608-6.6,6.178-15.87,7.679-26.207h24.247A50.591,50.591,0,0,1,71.956,107.4" transform="translate(0)" fill="#fff"/>
      <path id="Path_491" data-name="Path 491" d="M95.393,46.83H23.534a19.111,19.111,0,1,0,0,38.222H95.393a19.111,19.111,0,0,0,0-38.222" transform="translate(-0.675 -7.152)" fill="#fff"/>
      <path id="Path_492" data-name="Path 492" d="M95.393,46.83H23.534a19.111,19.111,0,1,0,0,38.222H95.393a19.111,19.111,0,0,0,0-38.222Z" transform="translate(-0.675 -7.152)" fill="none"/>
    </g>
  </g>
  <text id="www" transform="translate(21.906 65.407)" fill="#303038" font-size="26" font-family="Montserrat-SemiBold, Montserrat" font-weight="600"><tspan x="0" y="0" letter-spacing="-0.009em">ww</tspan><tspan y="0">w</tspan></text>
  <g id="Group_129" data-name="Group 129">
    <g id="Group_128" data-name="Group 128" clip-path="url(#clip-path)">
      <path id="Path_493" data-name="Path 493" d="M150.443,126.9,109.882,85.758,108.034,143.5l14.441-11.381,8.033,20.518,9.639-3.773-8.033-20.519Z" transform="translate(-16.498 -13.097)" fill="#303038"/>
      <path id="Path_494" data-name="Path 494" d="M150.443,126.9,109.882,85.758,108.034,143.5l14.441-11.381,8.033,20.518,9.639-3.773-8.033-20.519Z" transform="translate(-16.498 -13.097)" fill="none" stroke="#fff" stroke-miterlimit="10" stroke-width="5"/>
    </g>
  </g>
</svg>
