<svg id="Group_147" data-name="Group 147" xmlns="http://www.w3.org/2000/svg" xmlns:xlink="http://www.w3.org/1999/xlink" width="150.705" height="154.662" viewBox="0 0 150.705 154.662">
  <defs>
    <clipPath id="clip-path">
      <rect id="Rectangle_208" data-name="Rectangle 208" width="150.705" height="154.662" fill="none"/>
    </clipPath>
  </defs>
  <g id="Group_127" data-name="Group 127">
    <g id="Group_126" data-name="Group 126" clip-path="url(#clip-path)">
      <path id="Path_490" data-name="Path 490" d="M124.245,84.926a63.911,63.911,0,0,0,0-42.047,4.254,4.254,0,0,0-.2-.575A63.9,63.9,0,0,0,3.76,42.3a4.13,4.13,0,0,0-.2.575,63.911,63.911,0,0,0,0,42.047,4.628,4.628,0,0,0,.2.576,63.9,63.9,0,0,0,120.281,0,4.222,4.222,0,0,0,.2-.576M63.9,118.645c-2.433,0-6.357-4.405-9.637-14.245a100.324,100.324,0,0,1-3.772-16.144H77.31A100.22,100.22,0,0,1,73.538,104.4c-3.28,9.84-7.2,14.245-9.637,14.245M49.38,79.1c-.442-4.884-.674-9.98-.674-15.2s.232-10.308.674-15.192H78.422c.439,4.884.671,9.978.671,15.192s-.232,10.311-.671,15.2ZM9.16,63.9a54.488,54.488,0,0,1,2.147-15.192H40.192c-.429,4.986-.647,10.093-.647,15.192s.217,10.21.647,15.2H11.307A54.5,54.5,0,0,1,9.16,63.9M63.9,9.16c2.432,0,6.357,4.405,9.637,14.245A100.1,100.1,0,0,1,77.31,39.548H50.491A100.036,100.036,0,0,1,54.264,23.4c3.28-9.84,7.2-14.245,9.637-14.245M87.609,48.708h28.884a54.817,54.817,0,0,1,0,30.387H87.609c.429-4.985.644-10.093.644-15.2s-.215-10.206-.644-15.192m25.306-9.16H86.56c-1.632-11.236-4.425-21.314-8.347-28.486a54.982,54.982,0,0,1,34.7,28.486M49.588,11.063c-3.922,7.172-6.716,17.25-8.347,28.486H14.885a54.986,54.986,0,0,1,34.7-28.486m-34.7,77.194H41.241c1.631,11.236,4.425,21.314,8.347,28.486a55,55,0,0,1-34.7-28.486m63.329,28.486c3.921-7.172,6.715-17.25,8.347-28.486h26.355a54.991,54.991,0,0,1-34.7,28.486" transform="translate(0)" fill="#58496b"/>
      <path id="Path_491" data-name="Path 491" d="M103.3,46.83H25.2a20.773,20.773,0,1,0,0,41.546H103.3a20.773,20.773,0,0,0,0-41.546" transform="translate(-0.35 -3.701)" fill="#fff"/>
      <path id="Path_492" data-name="Path 492" d="M103.3,46.83H25.2a20.773,20.773,0,1,0,0,41.546H103.3a20.773,20.773,0,0,0,0-41.546Z" transform="translate(-0.35 -3.701)" fill="none"/>
    </g>
  </g>
  <text id="www" transform="translate(23.811 70.921)" fill="#58496b" font-size="28" font-family="Montserrat-SemiBold, Montserrat" font-weight="600"><tspan x="0" y="0" letter-spacing="-0.009em">ww</tspan><tspan y="0">w</tspan></text>
  <g id="Group_129" data-name="Group 129">
    <g id="Group_128" data-name="Group 128" clip-path="url(#clip-path)">
      <path id="Path_493" data-name="Path 493" d="M154.131,130.475,110.042,85.758l-2.009,62.765,15.7-12.37,8.732,22.3,10.477-4.1-8.732-22.3Z" transform="translate(-8.538 -6.777)" fill="#58496b"/>
      <path id="Path_494" data-name="Path 494" d="M154.131,130.475,110.042,85.758l-2.009,62.765,15.7-12.37,8.732,22.3,10.477-4.1-8.732-22.3Z" transform="translate(-8.538 -6.777)" fill="none" stroke="#fff" stroke-miterlimit="10" stroke-width="5"/>
    </g>
  </g>
</svg>
